<svg xmlns="http://www.w3.org/2000/svg" width="312" height="317" viewBox="0 0 312 317" version="1.1"><path d="M 136 6.682 C 122.071 8.964, 99.847 15.308, 96.508 17.956 C 95.954 18.396, 94.406 19.091, 93.070 19.502 C 90.710 20.227, 74.005 29.727, 73 30.914 C 72.725 31.240, 70.475 32.854, 68 34.503 C 65.525 36.151, 58.518 42.450, 52.428 48.500 C 40.528 60.323, 31.272 73.138, 24.018 87.838 C 19.417 97.161, 13.647 113.517, 14.322 115.323 C 14.874 116.802, 16.989 111.622, 17.032 108.685 C 17.049 107.483, 17.724 105.626, 18.532 104.559 C 19.339 103.491, 20 101.903, 20 101.030 C 20 100.156, 20.900 98.793, 22 98 C 23.100 97.207, 24 95.784, 24 94.838 C 24 93.892, 24.393 92.875, 24.873 92.578 C 25.353 92.282, 26.929 89.668, 28.373 86.769 C 36.041 71.389, 56.656 48.095, 72.658 36.729 C 81.564 30.403, 94.727 23.166, 104.333 19.313 C 122.918 11.860, 148.375 4.967, 146.577 7.875 C 145.507 9.607, 150.540 9.259, 152 7.500 C 153.089 6.188, 152.321 6.017, 145.872 6.136 C 141.818 6.211, 137.375 6.457, 136 6.682 M 136 11.577 L 133.500 13.083 136 12.421 C 137.375 12.056, 139.175 11.376, 140 10.909 C 141.333 10.155, 141.333 10.061, 140 10.066 C 139.175 10.069, 137.375 10.749, 136 11.577 M 158.500 12.473 C 138.351 16.617, 116.702 28.203, 102.469 42.457 C 98.052 46.881, 93.327 52.001, 91.969 53.836 C 90.611 55.671, 89.033 57.696, 88.463 58.336 C 85.908 61.205, 79 71.697, 79 72.710 C 79 73.328, 78.601 73.983, 78.114 74.167 C 77.184 74.517, 67.004 94.181, 66.994 95.649 C 66.990 96.117, 66.408 97.625, 65.699 99 C 63.430 103.402, 58.115 120.857, 55.803 131.500 C 54.147 139.124, 54.128 183.065, 55.779 187.500 C 56.731 190.058, 56.793 189.690, 56.198 185 C 55.814 181.975, 55.507 170.050, 55.516 158.500 C 55.529 141.607, 55.883 136.131, 57.326 130.500 C 60.181 119.363, 63.064 109.645, 64.071 107.764 C 64.582 106.809, 65 105.440, 65 104.723 C 65 100.966, 82.082 71.480, 88.424 64.289 C 89.721 62.819, 90.808 61.450, 93.815 57.500 C 99.254 50.356, 111.126 39.314, 118.778 34.281 C 127.286 28.686, 143.526 20.611, 148.627 19.440 C 150.207 19.077, 153.300 18.205, 155.500 17.502 C 164.958 14.480, 190.474 14.811, 200.830 18.091 C 219.653 24.052, 232.833 31.126, 249.194 44.050 C 257.653 50.731, 272.599 66.740, 278.390 75.323 C 281.630 80.125, 284.515 83.819, 284.801 83.533 C 285.087 83.246, 284.574 82.187, 283.661 81.177 C 282.747 80.168, 282 79.036, 282 78.661 C 282 78.286, 280.358 75.622, 278.351 72.740 C 259.035 45.008, 232.025 23.782, 205.500 15.492 C 191.577 11.140, 171.308 9.838, 158.500 12.473 M 128 14.577 L 125.500 16.083 128 15.421 C 129.375 15.056, 131.175 14.376, 132 13.909 C 133.333 13.155, 133.333 13.061, 132 13.066 C 131.175 13.069, 129.375 13.749, 128 14.577 M 121.105 17.085 C 119.787 17.612, 118.960 18.294, 119.266 18.600 C 119.573 18.906, 121.100 18.464, 122.662 17.618 C 125.803 15.916, 124.846 15.588, 121.105 17.085 M 112.492 21.615 C 105.104 25.486, 104.484 26.718, 111.750 23.091 C 115.188 21.375, 118 19.753, 118 19.486 C 118 18.750, 117.853 18.807, 112.492 21.615 M 101.872 27.664 C 100.628 29.172, 100.710 29.216, 102.750 28.129 C 105.077 26.889, 105.650 26, 104.122 26 C 103.640 26, 102.627 26.749, 101.872 27.664 M 95.980 31.281 C 87.595 36.568, 74.582 47, 76.374 47 C 76.729 47, 80.278 44.399, 84.260 41.220 C 88.242 38.041, 93.412 34.210, 95.750 32.706 C 98.088 31.202, 100 29.753, 100 29.486 C 100 28.777, 99.838 28.850, 95.980 31.281 M 178.195 33.850 C 176.928 34.207, 181.796 34.501, 189.014 34.502 C 196.232 34.504, 201.094 34.211, 199.819 33.852 C 196.818 33.007, 181.186 33.006, 178.195 33.850 M 170.105 36.085 C 168.787 36.612, 167.932 37.265, 168.203 37.537 C 168.475 37.808, 170.228 37.366, 172.099 36.554 C 175.803 34.947, 174.007 34.524, 170.105 36.085 M 205.901 36.554 C 207.772 37.366, 209.522 37.811, 209.790 37.543 C 210.349 36.984, 205.465 34.980, 203.685 35.039 C 203.033 35.061, 204.031 35.743, 205.901 36.554 M 161.441 40.450 C 159.566 41.851, 159.577 41.881, 161.750 41.334 C 162.988 41.022, 164 40.369, 164 39.883 C 164 38.693, 163.705 38.759, 161.441 40.450 M 214.083 39.365 C 214.313 39.565, 215.625 40.265, 217 40.920 C 219.357 42.042, 219.389 42.022, 217.559 40.555 C 215.966 39.279, 212.711 38.164, 214.083 39.365 M 153.591 45.586 C 148.835 49.218, 144.547 53.323, 140 58.599 C 138.625 60.195, 140.875 58.345, 145 54.489 C 149.125 50.633, 154.075 46.266, 156 44.786 C 157.925 43.305, 159.227 42.073, 158.894 42.047 C 158.560 42.021, 156.174 43.614, 153.591 45.586 M 220.109 42.443 C 221.529 43.863, 228.300 48.033, 228.638 47.696 C 229.084 47.250, 221.450 42, 220.355 42 C 219.976 42, 219.866 42.199, 220.109 42.443 M 211.608 44.825 C 211.283 45.351, 212.138 46.516, 213.509 47.414 C 216.437 49.332, 216.844 48.074, 214.099 45.590 C 213.021 44.614, 211.943 44.283, 211.608 44.825 M 172.884 48.668 C 156.533 56.789, 139.454 73.556, 126.288 94.412 C 121.713 101.661, 111.611 121.944, 112.255 122.589 C 112.553 122.887, 114.592 119.614, 116.785 115.315 C 121.718 105.649, 128.920 94.330, 135.500 85.903 C 147.616 70.387, 166.217 55.039, 178.340 50.556 C 189.211 46.535, 200.501 49.713, 204.825 58.011 C 206.572 61.365, 207.006 61.784, 206.542 59.667 C 205.578 55.272, 201.479 49.459, 197.696 47.121 C 195.055 45.489, 192.652 45, 187.266 45 C 181.217 45, 179.268 45.497, 172.884 48.668 M 68.649 53.570 C 65.436 56.633, 62.988 59.322, 63.210 59.544 C 63.433 59.766, 66.275 57.259, 69.526 53.974 C 76.976 46.445, 76.402 46.180, 68.649 53.570 M 213.067 48.500 C 213.074 50.266, 215.926 54.638, 215.965 52.941 C 215.984 52.084, 215.339 50.509, 214.532 49.441 C 213.724 48.374, 213.065 47.950, 213.067 48.500 M 216 49.606 C 216 49.939, 217.082 51.497, 218.404 53.069 C 219.727 54.640, 221.015 56.505, 221.267 57.213 C 221.520 57.921, 222.041 58.209, 222.427 57.853 C 223.181 57.156, 217.994 49.101, 216.750 49.038 C 216.338 49.017, 216 49.273, 216 49.606 M 230 49.465 C 230 49.720, 230.890 50.406, 231.977 50.988 C 233.591 51.851, 233.847 51.766, 233.371 50.523 C 232.853 49.173, 230 48.278, 230 49.465 M 239.350 56.397 C 242.018 59.002, 244.381 60.952, 244.601 60.732 C 244.821 60.512, 243.539 59.064, 241.751 57.515 C 235.591 52.176, 234.512 51.673, 239.350 56.397 M 217.524 61 C 218.768 66.920, 220.077 69.013, 219.401 64 C 219.067 61.525, 218.343 59.050, 217.792 58.500 C 217.122 57.832, 217.033 58.662, 217.524 61 M 223 59.299 C 223 59.528, 224.575 62.737, 226.500 66.431 C 228.425 70.124, 230.016 73.900, 230.035 74.823 C 230.055 75.745, 230.749 77.625, 231.577 79 C 233.147 81.606, 233.119 80.806, 231.435 75.009 C 229.651 68.861, 223 56.475, 223 59.299 M 58.334 64.755 C 55.558 68.039, 49.791 76.115, 47.626 79.750 C 47.217 80.438, 47.117 81, 47.404 81 C 47.691 81, 49.827 78.188, 52.151 74.750 C 54.475 71.313, 56.859 68.050, 57.448 67.500 C 60.318 64.823, 63.247 61.001, 62.424 61.005 C 61.916 61.008, 60.075 62.695, 58.334 64.755 M 133.860 66.250 C 132.040 68.588, 130.282 70.725, 129.953 71 C 129.624 71.275, 129.026 72.386, 128.624 73.470 C 127.698 75.968, 127.871 75.779, 133.403 68.250 C 138.588 61.194, 138.917 59.754, 133.860 66.250 M 249.085 65.501 C 251.056 67.701, 254.159 71.075, 255.979 73 L 259.290 76.500 256.233 72.500 C 254.552 70.300, 251.449 66.926, 249.338 65.001 L 245.500 61.503 249.085 65.501 M 207.551 65 C 207.930 66.375, 208.585 73.575, 209.007 81 L 209.773 94.500 209.603 80.500 C 209.487 71.067, 209.013 65.848, 208.147 64.500 C 206.946 62.630, 206.907 62.663, 207.551 65 M 220.258 85.500 C 220.271 97.568, 220.328 97.962, 221.062 91 C 221.496 86.875, 221.490 81.025, 221.048 78 C 220.404 73.596, 220.247 75.091, 220.258 85.500 M 125.980 77.524 C 125.284 78.362, 124.909 79.242, 125.145 79.479 C 125.382 79.715, 126.125 79.030, 126.796 77.955 C 128.248 75.630, 127.764 75.375, 125.980 77.524 M 259.638 78.500 C 259.955 79.325, 260.671 80, 261.229 80 C 261.815 80, 261.718 79.365, 261 78.500 C 260.315 77.675, 259.599 77, 259.409 77 C 259.219 77, 259.322 77.675, 259.638 78.500 M 122.583 82.643 C 121.631 85.126, 122.681 85.465, 123.954 83.086 C 124.568 81.938, 124.653 81, 124.142 81 C 123.632 81, 122.930 81.739, 122.583 82.643 M 262.970 82.944 C 263.543 84.014, 264.505 85.194, 265.109 85.567 C 265.713 85.941, 265.434 85.066, 264.489 83.623 C 262.487 80.568, 261.451 80.105, 262.970 82.944 M 45.372 83.428 C 44.752 84.102, 43.930 85.744, 43.545 87.077 C 43.005 88.945, 43.333 88.730, 44.976 86.137 C 47.166 82.683, 47.375 81.250, 45.372 83.428 M 233.609 86 C 233.948 88.475, 234.634 91.175, 235.133 92 C 236.239 93.827, 235.131 86.463, 233.854 83.500 C 233.301 82.217, 233.213 83.114, 233.609 86 M 285 85.263 C 285 86.448, 291.287 98.046, 291.704 97.629 C 291.918 97.415, 291.091 95.274, 289.867 92.870 C 287.301 87.832, 285 84.235, 285 85.263 M 120.245 87.250 C 119.218 88.534, 117.355 93.899, 118.249 93 C 119.088 92.156, 122.077 86, 121.648 86 C 121.426 86, 120.795 86.563, 120.245 87.250 M 267 89 C 267.589 90.100, 268.295 91, 268.570 91 C 268.845 91, 268.589 90.100, 268 89 C 267.411 87.900, 266.705 87, 266.430 87 C 266.155 87, 266.411 87.900, 267 89 M 40.583 91.643 C 39.631 94.126, 40.681 94.465, 41.954 92.086 C 42.568 90.938, 42.653 90, 42.142 90 C 41.632 90, 40.930 90.739, 40.583 91.643 M 116.081 95.849 C 114.448 98.901, 114.786 99.751, 116.602 97.158 C 117.483 95.900, 117.970 94.636, 117.683 94.350 C 117.396 94.063, 116.676 94.738, 116.081 95.849 M 38.081 96.849 C 37.486 97.960, 37.018 99.461, 37.040 100.184 C 37.062 100.908, 37.772 100.223, 38.618 98.662 C 39.464 97.100, 39.933 95.599, 39.659 95.326 C 39.386 95.052, 38.676 95.738, 38.081 96.849 M 207.455 99.455 C 207.072 102.005, 207.005 104.338, 207.305 104.638 C 207.605 104.938, 208.163 103.096, 208.545 100.545 C 208.928 97.995, 208.995 95.662, 208.695 95.362 C 208.395 95.062, 207.837 96.904, 207.455 99.455 M 236.777 116.281 C 236.930 127.376, 237.380 136.781, 237.777 137.180 C 238.687 138.093, 238.123 100.509, 237.189 97.975 C 236.810 96.948, 236.625 105.186, 236.777 116.281 M 272.964 99.836 C 273.623 101.120, 274.436 101.897, 274.771 101.562 C 275.107 101.227, 274.568 100.176, 273.574 99.226 C 271.846 97.576, 271.819 97.603, 272.964 99.836 M 292.071 99.500 C 292.071 100.050, 292.714 101.625, 293.500 103 C 294.286 104.375, 294.929 105.050, 294.929 104.500 C 294.929 103.950, 294.286 102.375, 293.500 101 C 292.714 99.625, 292.071 98.950, 292.071 99.500 M 113 102 C 112.361 103.194, 112.063 104.396, 112.338 104.671 C 112.613 104.946, 113.361 104.194, 114 103 C 114.639 101.806, 114.937 100.604, 114.662 100.329 C 114.387 100.054, 113.639 100.806, 113 102 M 35 105 C 34.302 106.685, 33.956 108.289, 34.231 108.564 C 34.506 108.839, 35.302 107.685, 36 106 C 36.698 104.315, 37.044 102.711, 36.769 102.436 C 36.494 102.161, 35.698 103.315, 35 105 M 218 107 C 217.326 109.809, 217 112.333, 217.275 112.608 C 217.550 112.883, 218.326 110.809, 219 108 C 219.674 105.191, 220 102.667, 219.725 102.392 C 219.450 102.117, 218.674 104.191, 218 107 M 110 109.500 C 109.265 110.873, 108.952 112.285, 109.304 112.637 C 109.656 112.989, 110.419 112.028, 111 110.500 C 112.364 106.913, 111.726 106.275, 110 109.500 M 295.615 109.500 C 295.969 111.150, 296.701 112.950, 297.242 113.500 C 297.887 114.157, 297.973 113.642, 297.491 112 C 296.307 107.963, 294.878 106.058, 295.615 109.500 M 31.700 114.965 C 30.765 117.861, 30.024 120.965, 30.054 121.865 C 30.083 122.764, 30.976 120.800, 32.038 117.500 C 33.100 114.200, 33.841 111.095, 33.685 110.601 C 33.528 110.106, 32.635 112.070, 31.700 114.965 M 204.100 114.600 C 202.742 119.519, 203.442 120.220, 205 115.500 C 205.660 113.501, 205.962 111.629, 205.673 111.339 C 205.383 111.050, 204.675 112.517, 204.100 114.600 M 279.573 116 C 279.941 117.375, 280.659 119.175, 281.169 120 C 281.813 121.042, 281.892 120.737, 281.427 119 C 281.059 117.625, 280.341 115.825, 279.831 115 C 279.187 113.958, 279.108 114.263, 279.573 116 M 215.162 117.543 C 214.523 118.946, 214 120.548, 214 121.102 C 214 121.656, 213.069 124.154, 211.931 126.652 C 210.793 129.151, 210.105 131.438, 210.403 131.736 C 210.971 132.304, 211.969 130.045, 215.108 121.086 C 217.105 115.387, 217.138 113.206, 215.162 117.543 M 298.655 119 C 298.996 120.925, 299.683 123.175, 300.181 124 C 301.360 125.953, 300.104 119.077, 298.902 117 C 298.362 116.066, 298.269 116.822, 298.655 119 M 12.083 122.049 C 11.487 124.826, 11.014 127.864, 11.030 128.799 C 11.091 132.187, 12.850 127.610, 13.568 122.197 C 14.450 115.552, 13.497 115.458, 12.083 122.049 M 106.608 119.107 C 106.366 119.873, 105.230 123.400, 104.084 126.944 C 102.938 130.488, 102.025 134.088, 102.055 134.944 C 102.085 135.800, 103.443 132.495, 105.072 127.600 C 106.701 122.705, 107.812 118.478, 107.540 118.207 C 107.269 117.936, 106.849 118.341, 106.608 119.107 M 201.314 122.750 C 200.972 123.713, 200.503 124.950, 200.272 125.500 C 200.041 126.050, 200.560 125.626, 201.426 124.559 C 202.998 122.620, 203.473 121, 202.469 121 C 202.176 121, 201.657 121.787, 201.314 122.750 M 110.094 126.121 C 106.652 134.473, 101.877 149.128, 102.246 150.210 C 102.487 150.920, 103.398 149.250, 104.270 146.500 C 105.142 143.750, 107.234 137.708, 108.919 133.074 C 110.603 128.440, 111.778 124.444, 111.528 124.195 C 111.279 123.946, 110.634 124.812, 110.094 126.121 M 282.676 126.500 C 283.003 128.150, 283.645 130.175, 284.105 131 C 285.603 133.693, 285.087 129.875, 283.496 126.500 L 282.082 123.500 282.676 126.500 M 28.595 125.847 C 28.262 126.386, 27.774 130.353, 27.512 134.663 L 27.035 142.500 28.528 134.094 C 29.941 126.137, 29.961 123.636, 28.595 125.847 M 197.980 129.524 C 197.284 130.362, 196.968 131.301, 197.276 131.610 C 197.585 131.919, 198.340 131.233, 198.954 130.086 C 200.264 127.638, 199.778 127.358, 197.980 129.524 M 302.189 134 C 302.162 135.925, 302.527 138.400, 303 139.500 C 303.780 141.315, 303.855 141.268, 303.811 139 C 303.785 137.625, 303.420 135.150, 303 133.500 L 302.237 130.500 302.189 134 M 9.322 137.750 C 8.362 144.465, 8.651 168.999, 9.747 173.800 C 10.161 175.614, 10.500 166.952, 10.500 154.550 C 10.500 142.147, 10.420 132, 10.322 132 C 10.224 132, 9.774 134.588, 9.322 137.750 M 195.100 135.295 C 193.835 137.402, 193.857 137.423, 195.579 135.774 C 196.570 134.824, 197.166 133.832, 196.903 133.569 C 196.640 133.306, 195.829 134.083, 195.100 135.295 M 205.620 139.174 C 203.661 142.654, 200.920 146.807, 199.529 148.406 C 198.138 150.004, 197 151.628, 197 152.015 C 197 153.104, 177.226 172.921, 170.500 178.573 C 167.200 181.347, 159.325 187.627, 153 192.531 C 125.126 214.141, 113.893 228.061, 105.820 251 C 104.755 254.025, 103.619 260.438, 103.294 265.250 C 102.692 274.179, 103.577 276.394, 105.693 271.250 C 106.315 269.738, 108.014 266.587, 109.469 264.250 C 110.923 261.913, 111.859 260, 111.547 260 C 111.236 260, 109.583 262.273, 107.874 265.050 C 106.165 267.828, 104.606 269.940, 104.410 269.744 C 103.640 268.974, 105.868 253.732, 106.901 252.699 C 107.505 252.095, 108 250.665, 108 249.523 C 108 248.380, 108.614 246.557, 109.365 245.473 C 110.116 244.388, 111.079 242.384, 111.505 241.021 C 113.204 235.584, 129.317 217.008, 140.492 207.601 C 144.346 204.356, 147.725 201.418, 148 201.072 C 148.275 200.727, 152.550 197.327, 157.500 193.518 C 169.327 184.416, 170.579 183.319, 183.216 171 C 189.140 165.225, 193.990 160.007, 193.994 159.405 C 193.997 158.803, 194.896 157.499, 195.991 156.508 C 197.086 155.517, 199.185 152.635, 200.655 150.103 C 202.124 147.571, 203.594 145.275, 203.921 145 C 205.164 143.954, 210.175 133.841, 209.690 133.357 C 209.411 133.078, 207.579 135.695, 205.620 139.174 M 100.080 141.279 C 99.334 143.907, 98.966 146.300, 99.262 146.596 C 100.058 147.391, 102.209 140.306, 101.793 138.258 C 101.593 137.271, 100.842 138.596, 100.080 141.279 M 285.195 139.500 C 285.215 141.150, 285.439 141.704, 285.693 140.731 C 285.947 139.758, 285.930 138.408, 285.656 137.731 C 285.382 137.054, 285.175 137.850, 285.195 139.500 M 239.506 141 C 240.409 144.059, 246.715 152, 248.241 152 C 248.850 152, 248.429 150.988, 247.305 149.750 C 246.181 148.512, 243.800 145.475, 242.015 143 C 239.721 139.820, 238.985 139.233, 239.506 141 M 189.262 143.594 C 188.031 145.524, 187.447 146.842, 187.965 146.522 C 189.460 145.598, 193.224 139.995, 192.318 140.042 C 191.868 140.066, 190.493 141.664, 189.262 143.594 M 286.285 161.500 C 286.287 178.218, 286.303 178.345, 287.255 169.172 C 287.878 163.158, 287.877 157.120, 287.252 152.172 C 286.364 145.141, 286.283 145.920, 286.285 161.500 M 304.272 149 C 304.272 151.475, 304.467 152.488, 304.706 151.250 C 304.944 150.012, 304.944 147.988, 304.706 146.750 C 304.467 145.512, 304.272 146.525, 304.272 149 M 178.170 155.834 C 174.138 160.050, 169.318 164.625, 167.458 166 C 165.598 167.375, 163.809 169.164, 163.483 169.976 C 163.156 170.789, 164.131 170.339, 165.649 168.976 C 167.168 167.614, 168.952 166.050, 169.614 165.500 C 173.306 162.435, 186 149.512, 186 148.818 C 186 147.625, 186.132 147.507, 178.170 155.834 M 97.158 154.866 C 95.793 159.424, 95.597 165.828, 96.925 162.500 C 97.874 160.122, 99.297 151, 98.720 151 C 98.498 151, 97.795 152.740, 97.158 154.866 M 100.160 155.860 C 98.764 160.521, 98.686 162.312, 99.913 161.554 C 100.902 160.943, 102.479 153.146, 101.760 152.426 C 101.518 152.185, 100.798 153.730, 100.160 155.860 M 249.079 154.921 C 249.036 156.253, 248.238 158.185, 247.306 159.214 C 245.714 160.974, 245.714 161.047, 247.315 160.433 C 249.153 159.727, 250.518 155.890, 249.677 153.793 C 249.391 153.082, 249.122 153.590, 249.079 154.921 M 238.410 163.146 C 237.318 164.912, 235.227 176.978, 236.107 176.434 C 236.535 176.170, 237.197 173.826, 237.579 171.227 C 237.960 168.627, 238.650 165.488, 239.112 164.250 C 240.001 161.865, 239.596 161.227, 238.410 163.146 M 97.438 168.250 C 96.825 171.013, 96.612 171.203, 96.014 169.518 C 95.542 168.188, 95.082 169.669, 94.615 174.018 C 94.233 177.583, 93.663 181.963, 93.349 183.750 C 92.883 186.398, 93.102 187, 94.531 187 C 96.083 187, 96.212 186.282, 95.652 180.750 C 95.291 177.194, 95.385 175.075, 95.870 175.834 C 96.952 177.528, 97.561 176.109, 98.533 169.628 C 99.324 164.352, 98.526 163.347, 97.438 168.250 M 27.196 170 C 27.154 172.475, 27.498 176.525, 27.961 179 C 29.778 188.712, 32.158 198.487, 32.943 199.469 C 33.398 200.036, 34.090 202.075, 34.483 204 C 34.875 205.925, 35.827 208.497, 36.598 209.715 C 37.369 210.933, 38 212.902, 38 214.091 C 38 216.547, 42.791 226.391, 47.105 232.800 C 48.697 235.165, 50 237.528, 50 238.050 C 50 238.573, 50.337 239.003, 50.750 239.007 C 51.163 239.011, 52.625 240.685, 54 242.728 C 56.415 246.317, 68.562 258.873, 74.579 264 C 80.945 269.425, 93.137 277.115, 101.600 281.044 C 113.526 286.580, 113.493 286.568, 121.500 288.885 C 135.123 292.829, 143.580 294, 158.422 294 C 180.092 294, 195.587 290.593, 214 281.780 C 221.341 278.266, 236.260 268.809, 239.586 265.560 C 240.183 264.977, 242.433 262.902, 244.586 260.949 C 253.610 252.762, 273.489 225.156, 271.671 223.338 C 271.343 223.010, 270.505 224.037, 269.808 225.621 C 269.111 227.204, 268.305 228.725, 268.018 229 C 267.730 229.275, 266.146 231.525, 264.497 234 C 260.172 240.494, 260.294 240.348, 251 250.215 C 241.529 260.270, 235.177 265.420, 223.814 272.256 C 186.908 294.456, 140.765 296.022, 101.793 276.396 C 63.486 257.105, 36.424 220.449, 29.517 178.500 C 27.402 165.654, 27.278 165.197, 27.196 170 M 304.310 171.500 C 304.315 174.800, 304.502 176.029, 304.725 174.232 C 304.947 172.435, 304.943 169.735, 304.715 168.232 C 304.486 166.729, 304.304 168.200, 304.310 171.500 M 158.385 173.186 C 156.798 174.388, 155.313 175.513, 155.083 175.686 C 154.854 175.859, 154.914 176.248, 155.217 176.550 C 155.519 176.853, 157.270 175.728, 159.106 174.050 C 162.985 170.507, 162.572 170.013, 158.385 173.186 M 150.584 179.641 C 150.036 181.070, 150.184 181.107, 151.727 179.924 C 152.702 179.177, 153.688 178.439, 153.917 178.283 C 154.146 178.127, 153.631 178, 152.774 178 C 151.916 178, 150.931 178.739, 150.584 179.641 M 11.426 183.322 C 11.731 185.975, 12.426 188.900, 12.969 189.822 C 13.662 191.001, 13.773 190.013, 13.343 186.500 C 13.005 183.750, 12.311 180.825, 11.800 180 C 11.188 179.013, 11.060 180.148, 11.426 183.322 M 232 181.500 C 232 182.875, 231.565 184, 231.033 184 C 229.357 184, 222.998 190.989, 223.042 192.783 C 223.068 193.849, 223.749 193.253, 224.836 191.214 C 225.800 189.407, 228.031 187.051, 229.794 185.979 C 232.035 184.616, 233 183.273, 233 181.515 C 233 180.132, 232.775 179, 232.500 179 C 232.225 179, 232 180.125, 232 181.500 M 285.158 182 C 285.158 183.375, 285.385 183.938, 285.662 183.250 C 285.940 182.563, 285.940 181.438, 285.662 180.750 C 285.385 180.063, 285.158 180.625, 285.158 182 M 302.740 183.500 C 302.371 185.150, 301.833 188.300, 301.545 190.500 C 301.053 194.263, 301.110 194.204, 302.510 189.500 C 303.329 186.750, 303.867 183.600, 303.705 182.500 C 303.486 181.011, 303.239 181.267, 302.740 183.500 M 143.020 185.476 C 142.231 186.426, 142.155 187, 142.819 187 C 144.027 187, 145.436 185.103, 144.743 184.409 C 144.491 184.158, 143.716 184.638, 143.020 185.476 M 283.694 188 C 283.398 188.825, 282.920 191.300, 282.631 193.500 L 282.107 197.500 283.558 193.014 C 284.866 188.972, 284.990 184.390, 283.694 188 M 137.108 190.058 C 133.645 192.942, 134.936 193.273, 138.500 190.415 C 140.150 189.092, 141.050 188.023, 140.500 188.038 C 139.950 188.054, 138.424 188.963, 137.108 190.058 M 57.046 192 C 57.037 192.825, 57.698 195.525, 58.514 198 L 59.998 202.500 59.386 198 C 58.747 193.298, 57.076 189.014, 57.046 192 M 14.045 194.550 C 14.070 195.623, 14.730 197.850, 15.511 199.500 L 16.932 202.500 16.345 198.500 C 15.716 194.221, 13.968 191.218, 14.045 194.550 M 125.754 200.022 C 121.562 203.885, 116.708 208.947, 114.966 211.272 C 112.342 214.776, 112.726 214.528, 117.209 209.820 C 120.184 206.696, 125.292 201.647, 128.559 198.600 C 131.827 195.552, 134.247 193.046, 133.937 193.030 C 133.628 193.013, 129.945 196.160, 125.754 200.022 M 299.111 200.111 C 298.495 201.878, 298.166 203.499, 298.380 203.713 C 298.594 203.927, 299.273 202.656, 299.889 200.889 C 300.505 199.122, 300.834 197.501, 300.620 197.287 C 300.406 197.073, 299.727 198.344, 299.111 200.111 M 279.961 202.149 C 279.317 204.542, 278.220 207.625, 277.522 209 C 275.535 212.916, 274.641 216.340, 275.791 215.629 C 276.952 214.912, 282.282 198.949, 281.591 198.258 C 281.338 198.005, 280.605 199.756, 279.961 202.149 M 220.768 203.260 L 219.036 207.500 221.018 205.139 C 222.108 203.841, 223 201.928, 223 200.889 C 223 198.192, 222.714 198.496, 220.768 203.260 M 17.576 205.500 C 18.516 209.433, 19.844 213, 20.369 213 C 21.074 213, 18.785 204.566, 17.791 203.500 C 17.210 202.877, 17.129 203.630, 17.576 205.500 M 60.545 206.250 C 60.919 207.488, 61.690 208.950, 62.260 209.500 C 62.965 210.182, 63.089 209.918, 62.647 208.668 C 62.291 207.661, 62 206.198, 62 205.418 C 62 204.638, 61.520 204, 60.933 204 C 60.291 204, 60.136 204.897, 60.545 206.250 M 209.500 208 L 202.500 208.647 209.691 208.823 C 213.646 208.921, 217.160 208.550, 217.500 208 C 217.840 207.450, 217.754 207.079, 217.309 207.177 C 216.864 207.274, 213.350 207.644, 209.500 208 M 296.624 208.539 C 296.281 209.432, 296.029 210.689, 296.063 211.332 C 296.098 211.974, 296.558 211.422, 297.085 210.105 C 297.612 208.787, 297.864 207.531, 297.645 207.312 C 297.426 207.093, 296.966 207.645, 296.624 208.539 M 195.250 209.689 C 196.213 209.941, 197.787 209.941, 198.750 209.689 C 199.713 209.438, 198.925 209.232, 197 209.232 C 195.075 209.232, 194.287 209.438, 195.250 209.689 M 184.199 210.986 C 181.018 211.740, 178.696 213.020, 180.583 212.981 C 181.088 212.970, 183.750 212.335, 186.500 211.570 C 191.747 210.110, 189.889 209.639, 184.199 210.986 M 63.067 213.500 C 63.074 215.266, 65.926 219.638, 65.965 217.941 C 65.984 217.084, 65.339 215.509, 64.532 214.441 C 63.724 213.374, 63.065 212.950, 63.067 213.500 M 173.105 214.085 C 171.787 214.612, 170.932 215.265, 171.203 215.537 C 171.475 215.808, 173.228 215.366, 175.099 214.554 C 178.803 212.947, 177.007 212.524, 173.105 214.085 M 21.571 216 C 21.930 217.375, 22.624 218.928, 23.112 219.450 C 24.540 220.977, 24.102 218.786, 22.423 216 L 20.917 213.500 21.571 216 M 109.638 217.500 C 109.322 218.325, 109.451 219, 109.924 219 C 110.398 219, 111.045 218.325, 111.362 217.500 C 111.678 216.675, 111.549 216, 111.076 216 C 110.602 216, 109.955 216.675, 109.638 217.500 M 165.105 217.085 C 163.787 217.612, 162.938 218.271, 163.216 218.549 C 163.800 219.133, 169 217.313, 169 216.525 C 169 215.803, 167.922 215.958, 165.105 217.085 M 273.081 218.849 C 271.769 221.300, 271.725 222, 272.883 222 C 273.794 222, 275.218 217.884, 274.541 217.208 C 274.333 216.999, 273.676 217.738, 273.081 218.849 M 154.650 222.115 C 151.432 223.775, 148.989 225.322, 149.220 225.554 C 149.452 225.785, 152.534 224.415, 156.070 222.510 C 163.956 218.261, 162.762 217.929, 154.650 222.115 M 66.600 222 C 67.316 224.675, 70.028 229.095, 69.958 227.473 C 69.935 226.938, 69.020 224.925, 67.924 223 C 66.436 220.387, 66.101 220.134, 66.600 222 M 105.818 223.245 C 102.994 227.199, 98.988 235.322, 99.574 235.908 C 100.093 236.426, 99.912 236.713, 103.294 230 C 104.818 226.975, 106.780 223.488, 107.655 222.250 C 108.529 221.012, 108.995 220, 108.690 220 C 108.385 220, 107.093 221.460, 105.818 223.245 M 24.032 221.559 C 24.014 222.141, 24.661 223.491, 25.468 224.559 C 26.276 225.626, 26.951 226.024, 26.968 225.441 C 26.986 224.859, 26.339 223.509, 25.532 222.441 C 24.724 221.374, 24.049 220.976, 24.032 221.559 M 289 227 C 288.411 228.100, 288.155 229, 288.430 229 C 288.705 229, 289.411 228.100, 290 227 C 290.589 225.900, 290.845 225, 290.570 225 C 290.295 225, 289.589 225.900, 289 227 M 140.437 230.835 C 132.835 236.089, 127.155 241, 128.680 241 C 129.214 241, 130.704 239.880, 131.991 238.510 C 133.277 237.141, 137.293 234.126, 140.915 231.812 C 144.537 229.497, 147.688 227.467, 147.917 227.302 C 148.146 227.136, 148.117 226.784, 147.853 226.520 C 147.589 226.256, 144.252 228.198, 140.437 230.835 M 27.032 227.559 C 27.014 228.141, 27.661 229.491, 28.468 230.559 C 29.276 231.626, 29.951 232.024, 29.968 231.441 C 29.986 230.859, 29.339 229.509, 28.532 228.441 C 27.724 227.374, 27.049 226.976, 27.032 227.559 M 70.032 229.559 C 70.014 230.141, 70.661 231.491, 71.468 232.559 C 72.276 233.626, 72.951 234.024, 72.968 233.441 C 72.986 232.859, 72.339 231.509, 71.532 230.441 C 70.724 229.374, 70.049 228.976, 70.032 229.559 M 285.964 233.164 C 284.819 235.397, 284.846 235.424, 286.574 233.774 C 287.568 232.824, 288.107 231.773, 287.771 231.438 C 287.436 231.103, 286.623 231.880, 285.964 233.164 M 30.598 234 C 32.550 237.902, 39.244 247.089, 39.760 246.573 C 40.080 246.254, 39.364 244.952, 38.171 243.682 C 36.977 242.411, 36 241.044, 36 240.643 C 36 240.243, 35.550 239.372, 35 238.708 C 34.449 238.044, 33.065 236.375, 31.923 235 C 30.782 233.625, 30.185 233.175, 30.598 234 M 73 235.878 C 73 236.360, 73.749 237.373, 74.664 238.128 C 76.172 239.372, 76.216 239.290, 75.129 237.250 C 73.889 234.923, 73 234.350, 73 235.878 M 283.100 238.295 C 281.835 240.402, 281.857 240.423, 283.579 238.774 C 284.570 237.824, 285.166 236.832, 284.903 236.569 C 284.640 236.306, 283.829 237.083, 283.100 238.295 M 96.983 240.544 C 96.451 241.943, 95.777 244.306, 95.485 245.794 L 94.954 248.500 96.079 246 C 97.632 242.547, 98.955 238, 98.405 238 C 98.155 238, 97.515 239.145, 96.983 240.544 M 76.015 240.639 C 76.007 241.266, 76.925 242.841, 78.056 244.139 C 79.673 245.995, 79.894 246.072, 79.090 244.500 C 77.355 241.108, 76.031 239.446, 76.015 240.639 M 277.619 246.433 C 274.957 249.922, 274.272 251.568, 275.899 250.562 C 276.855 249.972, 281.174 243, 280.585 243 C 280.394 243, 279.059 244.545, 277.619 246.433 M 118.529 250.250 C 115.955 253.137, 113.404 256.400, 112.860 257.500 C 111.874 259.495, 115.308 255.852, 121.106 248.750 C 125.635 243.204, 123.923 244.200, 118.529 250.250 M 80.036 247.750 C 80.016 248.438, 80.368 249, 80.819 249 C 81.269 249, 82.365 250.463, 83.255 252.250 C 84.144 254.037, 84.899 254.825, 84.931 254 C 84.964 253.175, 83.883 251.150, 82.531 249.500 C 81.179 247.850, 80.056 247.063, 80.036 247.750 M 40 248.409 C 40 248.599, 40.675 249.315, 41.500 250 C 42.365 250.718, 43 250.815, 43 250.229 C 43 249.671, 42.325 248.955, 41.500 248.638 C 40.675 248.322, 40 248.219, 40 248.409 M 93.740 251.500 C 93.371 253.150, 92.776 256.199, 92.418 258.276 C 91.884 261.376, 91.516 261.843, 90.361 260.885 C 89.227 259.944, 89.080 260.044, 89.600 261.401 C 89.956 262.327, 90.732 262.923, 91.325 262.725 C 92.630 262.290, 95.116 253.298, 94.705 250.500 C 94.486 249.011, 94.239 249.267, 93.740 251.500 M 46.890 256.861 C 52.710 264.209, 74 282.914, 74 280.679 C 74 280.438, 71.595 278.424, 68.656 276.205 C 62.729 271.730, 46 255.239, 46 253.871 C 46 253.392, 45.512 253, 44.916 253 C 44.320 253, 45.208 254.737, 46.890 256.861 M 86.638 257.500 C 86.955 258.325, 87.671 259, 88.229 259 C 88.815 259, 88.718 258.365, 88 257.500 C 87.315 256.675, 86.599 256, 86.409 256 C 86.219 256, 86.322 256.675, 86.638 257.500 M 261 266.500 C 256.903 270.625, 253.775 274, 254.050 274 C 254.325 274, 257.903 270.625, 262 266.500 C 266.097 262.375, 269.225 259, 268.950 259 C 268.675 259, 265.097 262.375, 261 266.500 M 248.500 277.617 C 246.300 279.564, 245.400 280.709, 246.500 280.161 C 248.596 279.116, 253 275.254, 253 274.461 C 253 273.696, 252.657 273.936, 248.500 277.617 M 79 284.430 C 79 284.705, 79.900 285.411, 81 286 C 82.100 286.589, 83 286.845, 83 286.570 C 83 286.295, 82.100 285.589, 81 285 C 79.900 284.411, 79 284.155, 79 284.430 M 232.720 288.177 C 228.990 290.430, 226.119 292.452, 226.338 292.672 C 226.826 293.159, 238.827 286.089, 239.580 284.871 C 240.374 283.586, 240.106 283.715, 232.720 288.177 M 85.226 288.574 C 86.176 289.568, 87.227 290.107, 87.562 289.771 C 87.897 289.436, 87.120 288.623, 85.836 287.964 C 83.603 286.819, 83.576 286.846, 85.226 288.574 M 89 290.460 C 89 291.328, 101.168 297.165, 101.755 296.579 C 102.059 296.275, 100.550 295.295, 98.404 294.402 C 96.257 293.509, 93.263 292.141, 91.750 291.363 C 90.237 290.585, 89 290.179, 89 290.460 M 219.441 295.555 C 217.611 297.022, 217.643 297.042, 220 295.920 C 223.061 294.462, 223.628 294, 222.358 294 C 221.821 294, 220.509 294.700, 219.441 295.555 M 104.515 298.024 C 105.179 299.099, 109 299.950, 109 299.023 C 109 298.589, 107.889 298.021, 106.530 297.761 C 105.172 297.501, 104.265 297.620, 104.515 298.024 M 212 298.500 C 210.625 299.286, 209.950 299.929, 210.500 299.929 C 211.050 299.929, 212.625 299.286, 214 298.500 C 215.375 297.714, 216.050 297.071, 215.500 297.071 C 214.950 297.071, 213.375 297.714, 212 298.500 M 113.500 301.496 C 116.875 303.087, 120.693 303.603, 118 302.105 C 117.175 301.645, 115.150 301.003, 113.500 300.676 L 110.500 300.082 113.500 301.496 M 204 301.219 C 202.075 301.791, 201.014 302.447, 201.641 302.676 C 202.269 302.906, 204.294 302.435, 206.141 301.629 C 210.047 299.924, 209.023 299.728, 204 301.219 M 123.548 304.431 C 125.774 305.160, 129.599 306.025, 132.048 306.353 L 136.500 306.951 131.864 305.608 C 129.314 304.870, 125.489 304.005, 123.364 303.686 L 119.500 303.107 123.548 304.431 M 190 305 L 187.500 305.801 190 305.830 C 191.375 305.846, 193.400 305.473, 194.500 305 L 196.500 304.141 194.500 304.170 C 193.400 304.186, 191.375 304.560, 190 305 M 142.191 308.150 C 145.143 308.982, 173.552 308.967, 177.443 308.132 C 179.062 307.784, 171.273 307.500, 160.134 307.500 C 148.996 307.500, 140.921 307.793, 142.191 308.150" stroke="none" fill="#9e9edc" fill-rule="evenodd"/><path d="M 140 7.902 C 139.175 8.365, 136.700 9.066, 134.500 9.460 C 129.994 10.266, 113.651 15.612, 104.333 19.327 C 94.785 23.134, 81.597 30.380, 72.658 36.729 C 56.656 48.095, 36.041 71.389, 28.373 86.769 C 26.929 89.668, 25.353 92.282, 24.873 92.578 C 24.393 92.875, 24 93.892, 24 94.838 C 24 95.784, 23.100 97.207, 22 98 C 20.900 98.793, 20 100.156, 20 101.030 C 20 101.903, 19.339 103.491, 18.532 104.559 C 17.724 105.626, 17.049 107.483, 17.032 108.685 C 17.014 109.887, 16.470 112.137, 15.821 113.685 C 11.132 124.884, 8.719 154.346, 11.005 172.500 C 12.333 183.047, 14.102 192.379, 14.986 193.500 C 15.419 194.050, 16.089 196.410, 16.474 198.745 C 16.859 201.079, 17.534 203.212, 17.974 203.484 C 18.413 203.756, 19.082 205.624, 19.460 207.637 C 20.499 213.177, 33.492 238.979, 35.250 238.994 C 35.663 238.997, 36 239.605, 36 240.345 C 36 241.085, 36.900 242.505, 38 243.500 C 39.100 244.495, 40 245.929, 40 246.686 C 40 247.443, 40.675 248.322, 41.500 248.638 C 42.325 248.955, 43 249.655, 43 250.193 C 43 252.475, 61.237 270.550, 71 277.944 C 82.831 286.905, 102.998 298, 107.454 298 C 108.304 298, 109 298.374, 109 298.832 C 109 299.289, 110.912 300.157, 113.250 300.762 C 115.588 301.366, 122.225 303.089, 128 304.590 C 137.758 307.127, 139.984 307.325, 159.500 307.389 C 178.150 307.451, 181.563 307.201, 190 305.156 C 214.074 299.320, 230.091 291.732, 248.500 277.442 C 257.649 270.339, 271.022 256.601, 275.500 249.704 C 276.050 248.857, 278.209 245.656, 280.298 242.590 C 285.465 235.007, 294.350 216.828, 296.471 209.500 C 297.426 206.200, 298.662 202.150, 299.217 200.500 C 303.012 189.231, 305.501 162.763, 304.046 149.138 C 302.494 134.603, 301.182 126.213, 300.156 124.259 C 299.648 123.291, 298.916 120.590, 298.529 118.255 C 298.142 115.921, 297.466 113.788, 297.026 113.516 C 296.587 113.244, 295.914 111.330, 295.532 109.261 C 294.520 103.782, 285.490 85.885, 278.528 75.561 C 272.612 66.789, 257.695 50.764, 249.194 44.050 C 232.833 31.126, 219.653 24.052, 200.830 18.091 C 190.474 14.811, 164.958 14.480, 155.500 17.502 C 153.300 18.205, 150.207 19.077, 148.627 19.440 C 143.526 20.611, 127.286 28.686, 118.778 34.281 C 111.118 39.319, 99.226 50.383, 93.821 57.500 C 92.568 59.150, 91.083 61.047, 90.521 61.715 C 89.960 62.384, 88.996 63.540, 88.380 64.284 C 81.210 72.947, 65 100.985, 65 104.723 C 65 105.440, 64.582 106.809, 64.071 107.764 C 63.077 109.620, 60.258 119.101, 57.310 130.500 C 55.803 136.327, 55.514 141.354, 55.584 160.500 C 55.640 175.729, 56.095 185.020, 56.930 188 C 57.625 190.475, 58.685 195.088, 59.287 198.250 C 59.888 201.413, 60.706 204, 61.102 204 C 61.499 204, 62.145 205.912, 62.537 208.250 C 62.930 210.588, 63.869 213.388, 64.625 214.473 C 65.381 215.557, 66 217.052, 66 217.795 C 66 219.927, 76.679 240.788, 81.045 247.183 C 83.220 250.370, 85.017 253.320, 85.038 253.739 C 85.058 254.157, 86.581 256.260, 88.422 258.411 L 91.770 262.322 92.473 257.911 C 93.449 251.795, 95.870 243.347, 98.178 238 C 102.584 227.798, 103.128 226.885, 112.206 214.500 C 114.611 211.217, 127.718 197.959, 132.500 193.972 C 134.150 192.596, 138.875 188.844, 143 185.635 C 147.125 182.426, 150.650 179.396, 150.833 178.900 C 151.017 178.405, 151.782 178, 152.534 178 C 153.285 178, 154.260 177.380, 154.700 176.622 C 155.140 175.864, 157.075 174.176, 159 172.871 C 166.848 167.551, 189.409 145.436, 190.502 141.992 C 190.850 140.897, 191.481 140, 191.904 140 C 192.327 140, 193.900 137.637, 195.399 134.750 C 196.899 131.863, 198.526 128.825, 199.015 128 C 201.744 123.399, 205.778 111.052, 207.183 103 C 209.115 91.925, 209.309 72.975, 207.560 66.226 C 205.161 56.975, 203.068 53.850, 197.425 51.098 C 188.255 46.625, 179.702 48.343, 165.500 57.509 C 143.392 71.778, 119.464 103.724, 108.955 133 C 103.961 146.914, 102.257 152.285, 101.541 156.373 C 101.168 158.503, 100.488 160.978, 100.029 161.873 C 99.038 163.806, 97.075 174.380, 96.339 181.750 C 95.960 185.549, 95.395 187, 94.296 187 C 93.133 187, 92.911 186.240, 93.347 183.750 C 93.660 181.963, 94.416 175.775, 95.027 170 C 95.638 164.225, 96.782 157.210, 97.569 154.412 C 98.356 151.614, 99 148.278, 99 147 C 99 145.722, 99.734 142.161, 100.632 139.088 C 104.579 125.577, 106.269 120.296, 107.589 117.349 C 108.365 115.616, 109 113.515, 109 112.680 C 109 111.845, 109.632 109.888, 110.405 108.331 C 111.177 106.774, 113.457 101.900, 115.471 97.500 C 117.486 93.100, 119.555 88.825, 120.069 88 C 120.584 87.175, 121.482 85.384, 122.065 84.020 C 122.648 82.657, 123.434 81.307, 123.813 81.020 C 124.684 80.360, 126.659 77.228, 128.237 74 C 128.909 72.625, 129.695 71.275, 129.984 71 C 130.272 70.725, 133.132 67.215, 136.338 63.199 C 146.252 50.784, 152.521 45.288, 163.274 39.583 C 171.716 35.105, 179.941 33, 189 33 C 195.730 33, 206.058 34.972, 209.848 36.981 C 210.757 37.463, 213.750 38.858, 216.500 40.083 C 219.250 41.307, 223.639 43.814, 226.252 45.654 C 228.866 47.494, 231.182 49, 231.399 49 C 232.087 49, 238.066 54.242, 246.568 62.300 C 254.216 69.550, 265.750 84.216, 268.352 90 C 268.971 91.375, 270.044 93.095, 270.738 93.821 C 271.432 94.548, 272 95.731, 272 96.449 C 272 97.167, 272.675 98.315, 273.500 99 C 274.325 99.685, 275.003 100.977, 275.006 101.872 C 275.010 102.768, 275.593 104.625, 276.303 106 C 277.822 108.941, 281.115 118.237, 283.389 126 C 286.026 135.002, 288.312 157.418, 287.571 167 C 286.254 184.044, 280.734 206.887, 275.611 216.500 C 274.732 218.150, 274.010 220.025, 274.006 220.667 C 274.003 221.308, 273.663 221.984, 273.250 222.169 C 272.837 222.353, 271.208 224.978, 269.629 228.002 C 265.603 235.712, 258.220 245.943, 249.064 256.500 C 238.890 268.232, 217.052 281.982, 199 288.023 C 175.583 295.859, 146.703 296.180, 121.500 288.885 C 113.493 286.568, 113.526 286.580, 101.600 281.044 C 93.137 277.115, 80.945 269.425, 74.579 264 C 68.562 258.873, 56.415 246.317, 54 242.728 C 52.625 240.685, 51.163 239.011, 50.750 239.007 C 50.337 239.003, 50 238.573, 50 238.050 C 50 237.528, 48.697 235.165, 47.105 232.800 C 42.791 226.391, 38 216.547, 38 214.091 C 38 212.902, 37.369 210.933, 36.598 209.715 C 35.827 208.497, 34.875 205.925, 34.483 204 C 34.090 202.075, 33.398 200.036, 32.943 199.469 C 32.098 198.413, 29.578 187.828, 27.832 178 C 26.406 169.971, 27.154 127.444, 28.750 125.849 C 29.438 125.162, 30 123.622, 30 122.428 C 30 120.326, 33.548 108.614, 36.039 102.494 C 39.086 95.008, 41.526 90, 42.128 90 C 42.488 90, 43.075 88.836, 43.432 87.414 C 43.789 85.992, 44.510 84.305, 45.034 83.664 C 45.558 83.024, 48.419 78.817, 51.392 74.315 C 54.365 69.814, 58.193 64.766, 59.899 63.099 C 61.604 61.432, 63 59.827, 63 59.533 C 63 59.006, 66.174 55.860, 75.645 47 C 85.687 37.606, 98.946 28.655, 114.925 20.482 C 118.541 18.632, 123.975 16.154, 127 14.975 C 130.025 13.795, 133.917 12.222, 135.649 11.479 C 137.381 10.736, 140.424 9.824, 142.410 9.451 C 144.397 9.078, 146.269 8.374, 146.570 7.887 C 147.263 6.765, 142.005 6.778, 140 7.902 M 214.395 48.973 C 215.278 50.332, 216.003 52.132, 216.006 52.973 C 216.010 53.813, 216.675 55.770, 217.484 57.322 C 218.294 58.874, 219.613 65.468, 220.417 71.976 C 222.257 86.884, 221.168 100.170, 216.890 115 C 214.210 124.287, 205.906 143.653, 204.025 145 C 203.641 145.275, 202.124 147.571, 200.655 150.103 C 199.185 152.635, 197.086 155.517, 195.991 156.508 C 194.896 157.499, 193.997 158.803, 193.994 159.405 C 193.990 160.007, 189.140 165.225, 183.216 171 C 170.579 183.319, 169.327 184.416, 157.500 193.518 C 152.550 197.327, 148.275 200.727, 148 201.072 C 147.725 201.418, 144.346 204.356, 140.492 207.601 C 129.317 217.008, 113.204 235.584, 111.505 241.021 C 111.079 242.384, 110.116 244.388, 109.365 245.473 C 108.614 246.557, 108 248.380, 108 249.523 C 108 250.665, 107.505 252.095, 106.901 252.699 C 105.892 253.708, 103.632 268.965, 104.381 269.714 C 104.560 269.894, 107.091 266.319, 110.004 261.770 C 116.674 251.356, 131.134 236.957, 142.320 229.590 C 150.986 223.883, 166.554 216, 169.159 216 C 169.951 216, 171.027 215.576, 171.550 215.057 C 173.573 213.050, 191.574 209.433, 204 208.536 C 218.691 207.476, 218.916 207.398, 221.054 202.691 C 222.100 200.386, 222.966 196.828, 222.978 194.783 C 222.995 191.879, 223.772 190.295, 226.533 187.533 C 228.477 185.590, 230.502 184, 231.033 184 C 231.565 184, 232 182.477, 232 180.617 C 232 178.125, 232.504 177.101, 233.914 176.733 C 235.400 176.344, 235.987 174.950, 236.545 170.485 C 237.337 164.145, 239.592 161, 243.345 161 C 246.128 161, 249 158.138, 249 155.365 C 249 154.277, 246.975 151.212, 244.500 148.555 C 242.025 145.897, 239.997 143.222, 239.994 142.611 C 239.990 142, 239.286 140.154, 238.428 138.509 C 237.191 136.136, 236.882 132.110, 236.931 119.009 C 237.004 99.699, 235.550 90.262, 230.108 74.722 C 227.972 68.625, 223.353 59.495, 221.250 57.213 C 220.563 56.467, 219.983 55.552, 219.962 55.179 C 219.942 54.805, 218.320 52.700, 216.358 50.500 C 214.395 48.300, 213.512 47.613, 214.395 48.973" stroke="none" fill="#2f2f78" fill-rule="evenodd"/></svg>