<svg width="147" height="147" viewBox="0 0 147 147" fill="none" xmlns="http://www.w3.org/2000/svg">
<g clip-path="url(#clip0_1_454)">
<path d="M73.5 145.5C33.7355 145.5 1.5 113.265 1.5 73.5C1.5 33.7355 33.7355 1.5 73.5 1.5C113.265 1.5 145.5 33.7355 145.5 73.5C145.5 113.265 113.265 145.5 73.5 145.5Z" stroke="#EE1010" stroke-width="3" stroke-miterlimit="10"/>
<path d="M42.54 138.52C42.54 138.52 48.54 137.04 48.54 129.52V113.18C48.54 113.18 36.42 104.18 30.96 89.6599C25.5 75.1399 20.5 50.9299 51.87 46.8899C83.24 42.8499 95.35 50.8899 97.25 68.9899C99.15 87.0899 75.87 111.99 75.87 111.99L75.63 130.52C76.0153 133.462 77.1009 136.27 78.7957 138.706C80.4905 141.142 82.745 143.136 85.37 144.52" stroke="#EE1010" stroke-width="3" stroke-miterlimit="10"/>
<path d="M48.55 113.18C48.55 113.18 62.81 123.18 75.88 112" stroke="#EE1010" stroke-width="3" stroke-miterlimit="10"/>
<path d="M26.91 73.5C26.91 73.5 18.61 71.6 22.41 83.5C26.21 95.4 29.91 86.7 29.91 86.7" stroke="#EE1010" stroke-width="3" stroke-miterlimit="10"/>
<path d="M97.37 74.45C97.37 74.45 104.87 73 101.3 83C97.73 93 93.16 86.92 93.16 86.92" stroke="#EE1010" stroke-width="3" stroke-miterlimit="10"/>
<path d="M51.88 46.89C51.88 46.89 96.07 40.23 87.52 17.18C78.97 -5.87 47.52 6.34 47.52 6.34" stroke="#EE1010" stroke-width="3" stroke-miterlimit="10"/>
<path d="M111.73 134.52C111.73 134.52 100.85 118.17 102.26 70.41C103.67 22.65 94.47 22.77 88.26 19.74" stroke="#EE1010" stroke-width="3" stroke-miterlimit="10"/>
<path d="M68.75 100.47C68.75 100.47 60.55 107.47 53.9 100.47" stroke="#EE1010" stroke-width="3" stroke-miterlimit="10"/>
<path d="M68.75 91.74C67.8733 91.5419 66.962 91.5565 66.0921 91.7826C65.2222 92.0088 64.4191 92.4399 63.75 93.04C61.75 95.12 59.23 95.04 57.99 92.81C56.75 90.58 52.35 92 52.35 92" stroke="#EE1010" stroke-width="2" stroke-miterlimit="10"/>
<path d="M68.75 65.81C68.75 65.81 79.86 59 88.26 68" stroke="#EE1010" stroke-width="2" stroke-miterlimit="10"/>
<path d="M53.9 66.2499C50.8176 64.3584 47.2078 63.5101 43.6055 63.8307C40.0032 64.1513 36.5999 65.6238 33.9 68.0299" stroke="#EE1010" stroke-width="2" stroke-miterlimit="10"/>
<path d="M53 75.58C53 75.58 46 61.48 35.66 75.28" stroke="#EE1010" stroke-width="2" stroke-miterlimit="10"/>
<path d="M39.54 71.21C39.54 71.21 43.96 81.69 49.54 71.21" stroke="#EE1010" stroke-width="2" stroke-miterlimit="10"/>
<path d="M87.15 75.9999C87.15 75.9999 81.15 61.4699 69.86 74.5599" stroke="#EE1010" stroke-width="2" stroke-miterlimit="10"/>
<path d="M74 70.75C74 70.75 77.73 81.5 84 71.41" stroke="#EE1010" stroke-width="2" stroke-miterlimit="10"/>
<path d="M112.71 25V32.63L102.59 42.75H93.82H102.59L112.71 53.42V60.91V53.42L123.05 42.95H131.36H123.05L112.71 32.63" stroke="#EE1010" stroke-width="5" stroke-miterlimit="10"/>
<path d="M100.6 6.77002V8.87002L97.98 11.24H92.63H97.98L101.42 14.21V19.74V14.21L104.98 12.67H109.62H104.98L101.9 8.75002" stroke="#EE1010" stroke-width="3" stroke-miterlimit="10"/>
</g>
<defs>
<clipPath id="clip0_1_454">
<rect width="147" height="147" fill="white" transform="matrix(-1 0 0 1 147 0)"/>
</clipPath>
</defs>
</svg>
