<svg width="147" height="147" viewBox="0 0 147 147" fill="none" xmlns="http://www.w3.org/2000/svg">
<g clip-path="url(#clip0_1_502)">
<path d="M73.07 144.64C112.597 144.64 144.64 112.597 144.64 73.07C144.64 33.543 112.597 1.5 73.07 1.5C33.543 1.5 1.5 33.543 1.5 73.07C1.5 112.597 33.543 144.64 73.07 144.64Z" stroke="#EE1010" stroke-width="4"/>
<path d="M67.48 1.71997C67.48 1.71997 52.15 50.51 36.48 52.83C20.81 55.15 20.25 63.52 22.57 74.75C24.89 85.98 25.57 113.63 22.92 124.13" stroke="#EE1010" stroke-width="4"/>
<path d="M106.62 9.83997C106.62 9.83997 71 54.43 66.59 69.4C62.18 84.37 43.6 110 43.6 110C38.5337 117.115 35.9508 125.7 36.25 134.43" stroke="#EE1010" stroke-width="4"/>
<path d="M91.72 29.3101C91.72 29.3101 92.25 52.4001 81.91 55.6801C71.57 58.9601 73.36 74.9301 87.62 89.0001C101.88 103.07 97.71 119.8 113.07 132.44" stroke="#EE1010" stroke-width="4"/>
<path d="M118.23 17.55C118.23 17.55 118.55 90.61 118.23 99.34C117.91 108.07 116.52 124.34 120.16 126.98" stroke="#EE1010" stroke-width="4"/>
</g>
<defs>
<clipPath id="clip0_1_502">
<rect width="146.15" height="146.15" fill="white"/>
</clipPath>
</defs>
</svg>
