<svg width="146" height="146" viewBox="0 0 146 146" fill="none" xmlns="http://www.w3.org/2000/svg">
<g clip-path="url(#clip0_1_481)">
<path d="M72.61 143.72C111.883 143.72 143.72 111.883 143.72 72.61C143.72 33.337 111.883 1.5 72.61 1.5C33.337 1.5 1.5 33.337 1.5 72.61C1.5 111.883 33.337 143.72 72.61 143.72Z" stroke="#EE1010" stroke-width="3"/>
<path d="M139.18 97.64C139.18 97.64 119.88 93.74 116.45 94.35C116.45 94.35 75.69 119.98 65.66 121.44C50.33 123.67 26.54 118.05 12.41 110.44" stroke="#EE1010" stroke-width="3"/>
<path d="M66.55 105.22C66.55 105.22 54.07 113.78 26.81 105.22C-0.450003 96.6601 11 108.14 11 108.14" stroke="#EE1010" stroke-width="3"/>
<path d="M143.11 63.3C143.11 63.3 126.43 67.54 115.02 63.3C103.61 59.06 89.9 61.38 69.76 80.09C49.62 98.8 54.07 99.1601 54.07 99.1601C54.07 99.1601 63.34 105.58 87.4 86" stroke="#EE1010" stroke-width="3"/>
<path d="M60.64 89C60.64 89 66.13 91.59 63.74 99.51" stroke="#EE1010" stroke-width="2"/>
<path d="M114.12 63.4899L116.45 52.5599C116.45 52.5599 69.37 43.2599 60.22 88.5599" stroke="#EE1010" stroke-width="3"/>
<path d="M4.26 52.94C4.26 52.94 45.07 45.88 60.26 89.61C60.22 89.61 10 99.55 4.26 52.94Z" stroke="#EE1010" stroke-width="3"/>
<path d="M23.66 47.42V30.55C23.66 30.55 40.77 34.3501 46 41.7201L46.36 67.7201" stroke="#EE1010" stroke-width="3" stroke-miterlimit="10"/>
<path d="M46 41.72C48.3031 34.3349 52.5231 27.6925 58.23 22.47C58.23 22.47 70.23 30 72.61 41V65.46" stroke="#EE1010" stroke-width="3" stroke-miterlimit="10"/>
<path d="M95.78 47.42V31.5C95.78 31.5 76.89 34.83 72.61 41" stroke="#EE1010" stroke-width="3" stroke-miterlimit="10"/>
<path d="M8.61 102.55C8.61 102.55 7.38 97.92 11.9 98.27C16.42 98.62 41.96 104.93 54.31 103.62" stroke="#EE1010" stroke-width="3" stroke-miterlimit="10"/>
<path d="M15.1 98.25C15.1 98.25 18 93.36 35 98.25C52 103.14 54.3 102.91 54.3 102.91H59.77" stroke="#EE1010" stroke-width="3" stroke-miterlimit="10"/>
<path d="M29.77 97C29.77 97 28.89 93.93 36.13 95.35C43.37 96.77 45.13 100.7 54.31 102.96" stroke="#EE1010" stroke-width="3" stroke-miterlimit="10"/>
</g>
<defs>
<clipPath id="clip0_1_481">
<rect width="145.22" height="145.22" fill="white"/>
</clipPath>
</defs>
</svg>
